<svg xmlns="http://www.w3.org/2000/svg" xmlns:xlink="http://www.w3.org/1999/xlink" width="100" height="100" viewBox="0 0 100 100">
  <defs>
    <clipPath id="clip-Colored_Hype">
      <rect width="100" height="100"/>
    </clipPath>
  </defs>
  <g id="Colored_Hype" data-name="Colored Hype" clip-path="url(#clip-Colored_Hype)">
    <g id="Hype_Symbol" data-name="Hype Symbol" transform="translate(-33.852 35.107)">
      <g id="Group_2" data-name="Group 2" transform="translate(76.784 -36.359) rotate(14)">
        <g id="Path_2" data-name="Path 2" transform="translate(0 0)" fill="#ffd32a">
          <path d="M 1.725947380065918 56.84305191040039 L 13.31611061096191 5.737481594085693 L 17.8271427154541 41.08066940307617 L 1.725947380065918 56.84305191040039 Z" stroke="none"/>
          <path d="M 13.04030227661133 11.47501754760742 L 3.451908111572266 53.75400161743164 L 16.77222061157227 40.71398162841797 L 13.04030227661133 11.47501754760742 M 13.59191703796387 3.814697265625e-06 L 18.88205718994141 41.44737243652344 L -3.814697265625e-06 59.93210220336914 L 13.59191703796387 3.814697265625e-06 Z" stroke="none" fill="#cca200"/>
        </g>
        <g id="Path_6" data-name="Path 6" transform="translate(38.775 96.353) rotate(180)" fill="#ffd32a">
          <path d="M 1.725947380065918 56.84305191040039 L 13.31611061096191 5.737481594085693 L 17.8271427154541 41.08066940307617 L 1.725947380065918 56.84305191040039 Z" stroke="none"/>
          <path d="M 13.04030227661133 11.47501754760742 L 3.451908111572266 53.75400161743164 L 16.77222061157227 40.71398162841797 L 13.04030227661133 11.47501754760742 M 13.59191703796387 3.814697265625e-06 L 18.88205718994141 41.44737243652344 L -3.814697265625e-06 59.93210220336914 L 13.59191703796387 3.814697265625e-06 Z" stroke="none" fill="#cca200"/>
        </g>
      </g>
      <g id="Path_7" data-name="Path 7" transform="translate(69.374 -44.819)" fill="#ffd32a">
        <path d="M 13.96161079406738 65.63493347167969 L -3.612995147705078 65.63493347167969 L 15.50746822357178 53.93943786621094 L 32.74605178833008 54.14754486083984 L 13.96161079406738 65.63493347167969 Z" stroke="none"/>
        <path d="M 15.78350353240967 54.94283294677734 L -0.06169700622558594 64.63493347167969 L 13.68007278442383 64.63493347167969 L 29.26271629333496 55.10556030273438 L 15.78350353240967 54.94283294677734 M 15.23144912719727 52.93602752685547 L 36.22937774658203 53.18952178955078 L 14.24313926696777 66.63493347167969 L -7.164310455322266 66.63493347167969 L 15.23144912719727 52.93602752685547 Z" stroke="none" fill="#cca200"/>
      </g>
    </g>
  </g>
</svg>
