<svg xmlns="http://www.w3.org/2000/svg" xmlns:xlink="http://www.w3.org/1999/xlink" width="100" height="100" viewBox="0 0 100 100">
  <defs>
    <clipPath id="clip-unsaved">
      <rect width="100" height="100"/>
    </clipPath>
  </defs>
  <g id="unsaved" clip-path="url(#clip-unsaved)">
    <rect width="100" height="100" fill="#fff"/>
    <path id="save" d="M67.184,5H16.8A10.81,10.81,0,0,0,6,15.8V84.18a3.6,3.6,0,0,0,5.809,2.84L41.991,63.546,72.173,87.019a3.6,3.6,0,0,0,5.809-2.84V15.8A10.81,10.81,0,0,0,67.184,5Zm3.6,71.823L44.2,56.147a3.6,3.6,0,0,0-4.42,0L13.2,76.823V15.8a3.605,3.605,0,0,1,3.6-3.6H67.184a3.605,3.605,0,0,1,3.6,3.6Z" transform="translate(7 4)"/>
  </g>
</svg>
